<mxfile host="app.diagrams.net" agent="Mozilla/5.0 (Windows NT 10.0; Win64; x64) AppleWebKit/537.36 (KHTML, like Gecko) Chrome/128.0.0.0 Safari/537.36" version="24.7.10">
  <diagram name="PÃ¡gina-1" id="iagiheBBSunq-2mGAP3K">
    <mxGraphModel dx="1120" dy="472" grid="1" gridSize="10" guides="1" tooltips="1" connect="1" arrows="1" fold="1" page="1" pageScale="1" pageWidth="827" pageHeight="1169" math="0" shadow="0">
      <root>
        <mxCell id="0" />
        <mxCell id="1" parent="0" />
        <mxCell id="k3gZMQT6UJszb_xDOWNF-4" value="" style="edgeStyle=orthogonalEdgeStyle;rounded=0;orthogonalLoop=1;jettySize=auto;html=1;" edge="1" parent="1" source="k3gZMQT6UJszb_xDOWNF-1" target="k3gZMQT6UJszb_xDOWNF-2">
          <mxGeometry relative="1" as="geometry" />
        </mxCell>
        <mxCell id="k3gZMQT6UJszb_xDOWNF-1" value="&lt;div&gt;&lt;font style=&quot;vertical-align: inherit;&quot;&gt;&lt;font style=&quot;vertical-align: inherit;&quot;&gt;&lt;font style=&quot;vertical-align: inherit;&quot;&gt;&lt;font style=&quot;vertical-align: inherit;&quot;&gt;Inicio&amp;nbsp;&lt;/font&gt;&lt;/font&gt;&lt;/font&gt;&lt;/font&gt;&lt;/div&gt;" style="ellipse;whiteSpace=wrap;html=1;" vertex="1" parent="1">
          <mxGeometry x="320" y="420" width="120" height="80" as="geometry" />
        </mxCell>
        <mxCell id="k3gZMQT6UJszb_xDOWNF-6" value="" style="edgeStyle=orthogonalEdgeStyle;rounded=0;orthogonalLoop=1;jettySize=auto;html=1;" edge="1" parent="1" source="k3gZMQT6UJszb_xDOWNF-2" target="k3gZMQT6UJszb_xDOWNF-5">
          <mxGeometry relative="1" as="geometry" />
        </mxCell>
        <mxCell id="k3gZMQT6UJszb_xDOWNF-2" value="&lt;font style=&quot;vertical-align: inherit;&quot;&gt;&lt;font style=&quot;vertical-align: inherit;&quot;&gt;N1, N2&lt;/font&gt;&lt;/font&gt;" style="shape=card;whiteSpace=wrap;html=1;" vertex="1" parent="1">
          <mxGeometry x="312.5" y="540" width="135" height="70" as="geometry" />
        </mxCell>
        <mxCell id="k3gZMQT6UJszb_xDOWNF-8" value="" style="edgeStyle=orthogonalEdgeStyle;rounded=0;orthogonalLoop=1;jettySize=auto;html=1;" edge="1" parent="1" source="k3gZMQT6UJszb_xDOWNF-5" target="k3gZMQT6UJszb_xDOWNF-7">
          <mxGeometry relative="1" as="geometry" />
        </mxCell>
        <mxCell id="k3gZMQT6UJszb_xDOWNF-10" value="" style="edgeStyle=orthogonalEdgeStyle;rounded=0;orthogonalLoop=1;jettySize=auto;html=1;" edge="1" parent="1" source="k3gZMQT6UJszb_xDOWNF-5" target="k3gZMQT6UJszb_xDOWNF-9">
          <mxGeometry relative="1" as="geometry" />
        </mxCell>
        <mxCell id="k3gZMQT6UJszb_xDOWNF-5" value="&lt;font style=&quot;vertical-align: inherit;&quot;&gt;&lt;font style=&quot;vertical-align: inherit;&quot;&gt;N1&amp;gt;=N2&lt;/font&gt;&lt;/font&gt;" style="rhombus;whiteSpace=wrap;html=1;" vertex="1" parent="1">
          <mxGeometry x="320" y="685" width="120" height="80" as="geometry" />
        </mxCell>
        <mxCell id="k3gZMQT6UJszb_xDOWNF-7" value="&lt;font style=&quot;vertical-align: inherit;&quot;&gt;&lt;font style=&quot;vertical-align: inherit;&quot;&gt;N1&lt;/font&gt;&lt;/font&gt;" style="shape=document;whiteSpace=wrap;html=1;boundedLbl=1;" vertex="1" parent="1">
          <mxGeometry x="120" y="685" width="120" height="80" as="geometry" />
        </mxCell>
        <mxCell id="k3gZMQT6UJszb_xDOWNF-9" value="&lt;font style=&quot;vertical-align: inherit;&quot;&gt;&lt;font style=&quot;vertical-align: inherit;&quot;&gt;N2&lt;/font&gt;&lt;/font&gt;" style="shape=document;whiteSpace=wrap;html=1;boundedLbl=1;" vertex="1" parent="1">
          <mxGeometry x="520" y="685" width="120" height="80" as="geometry" />
        </mxCell>
        <mxCell id="k3gZMQT6UJszb_xDOWNF-11" value="&lt;font style=&quot;vertical-align: inherit;&quot;&gt;&lt;font style=&quot;vertical-align: inherit;&quot;&gt;FIM&lt;/font&gt;&lt;/font&gt;" style="ellipse;whiteSpace=wrap;html=1;" vertex="1" parent="1">
          <mxGeometry x="312.5" y="840" width="120" height="80" as="geometry" />
        </mxCell>
        <mxCell id="k3gZMQT6UJszb_xDOWNF-12" value="" style="endArrow=classic;html=1;rounded=0;" edge="1" parent="1">
          <mxGeometry width="50" height="50" relative="1" as="geometry">
            <mxPoint x="170" y="760" as="sourcePoint" />
            <mxPoint x="310" y="880" as="targetPoint" />
            <Array as="points">
              <mxPoint x="170" y="880" />
            </Array>
          </mxGeometry>
        </mxCell>
        <mxCell id="k3gZMQT6UJszb_xDOWNF-13" value="" style="endArrow=classic;html=1;rounded=0;exitX=0.683;exitY=0.788;exitDx=0;exitDy=0;exitPerimeter=0;" edge="1" parent="1" source="k3gZMQT6UJszb_xDOWNF-9">
          <mxGeometry width="50" height="50" relative="1" as="geometry">
            <mxPoint x="180" y="770" as="sourcePoint" />
            <mxPoint x="440" y="880" as="targetPoint" />
            <Array as="points">
              <mxPoint x="600" y="880" />
            </Array>
          </mxGeometry>
        </mxCell>
      </root>
    </mxGraphModel>
  </diagram>
</mxfile>
